<svg width="27" height="28" viewBox="0 0 27 28" fill="none" xmlns="http://www.w3.org/2000/svg">
<rect x="0.332292" y="1.26979" width="25.9188" height="25.9188" rx="12.9594" stroke="#EDECEA" stroke-width="0.664584"/>
<path d="M13.2916 12.5804C12.9656 12.5804 12.647 12.6771 12.3759 12.8582C12.1049 13.0393 11.8936 13.2967 11.7689 13.5979C11.6441 13.899 11.6115 14.2304 11.6751 14.5501C11.7387 14.8699 11.8957 15.1635 12.1262 15.394C12.3567 15.6245 12.6503 15.7815 12.9701 15.8451C13.2898 15.9087 13.6212 15.8761 13.9223 15.7513C14.2235 15.6266 14.4809 15.4153 14.662 15.1443C14.8431 14.8732 14.9398 14.5546 14.9398 14.2286C14.9398 14.0122 14.8971 13.7978 14.8143 13.5979C14.7315 13.3979 14.6101 13.2162 14.457 13.0632C14.304 12.9101 14.1223 12.7887 13.9223 12.7059C13.7224 12.6231 13.508 12.5804 13.2916 12.5804ZM19.8909 10.9522C19.8878 10.4389 19.7933 9.93034 19.6118 9.45025C19.4784 9.09885 19.272 8.77974 19.0062 8.51397C18.7405 8.2482 18.4213 8.0418 18.07 7.90841C17.5899 7.72688 17.0813 7.63236 16.568 7.62928C15.7107 7.58276 15.4581 7.58276 13.2916 7.58276C11.125 7.58276 10.8725 7.58276 10.0152 7.62928C9.50193 7.63236 8.99333 7.72688 8.51323 7.90841C8.16184 8.0418 7.84273 8.2482 7.57696 8.51397C7.31118 8.77974 7.10479 9.09885 6.9714 9.45025C6.78987 9.93034 6.69535 10.4389 6.69227 10.9522C6.64575 11.8095 6.64575 12.0621 6.64575 14.2286C6.64575 16.3951 6.64575 16.6477 6.69227 17.505C6.69994 18.02 6.7943 18.53 6.9714 19.0136C7.10345 19.3638 7.30977 19.6812 7.57617 19.944C7.84094 20.2112 8.16069 20.4176 8.51323 20.5488C8.99333 20.7303 9.50193 20.8249 10.0152 20.8279C10.8725 20.8744 11.125 20.8744 13.2916 20.8744C15.4581 20.8744 15.7107 20.8744 16.568 20.8279C17.0813 20.8249 17.5899 20.7303 18.07 20.5488C18.4225 20.4176 18.7422 20.2112 19.007 19.944C19.2734 19.6812 19.4797 19.3638 19.6118 19.0136C19.7927 18.531 19.8872 18.0204 19.8909 17.505C19.9374 16.6477 19.9374 16.3951 19.9374 14.2286C19.9374 12.0621 19.9374 11.8095 19.8909 10.9522ZM18.2029 16.2689C18.1819 16.679 18.0944 17.0831 17.9437 17.4651C17.8147 17.7839 17.6229 18.0735 17.3797 18.3167C17.1365 18.5599 16.8469 18.7517 16.5281 18.8807C16.1424 19.023 15.7362 19.1015 15.3252 19.1133H11.258C10.847 19.1015 10.4408 19.023 10.0551 18.8807C9.7254 18.7584 9.42774 18.563 9.18446 18.3092C8.9435 18.0709 8.7575 17.7828 8.6395 17.4651C8.49711 17.0797 8.42072 16.673 8.41355 16.2622V12.195C8.42072 11.7842 8.49711 11.3775 8.6395 10.9921C8.76177 10.6624 8.95718 10.3647 9.21105 10.1215C9.45065 9.88213 9.73833 9.69639 10.0551 9.57652C10.4408 9.43422 10.847 9.35566 11.258 9.34391H15.3252C15.7362 9.35566 16.1424 9.43422 16.5281 9.57652C16.8578 9.69878 17.1554 9.89419 17.3987 10.1481C17.6397 10.3863 17.8257 10.6744 17.9437 10.9921C18.086 11.3778 18.1645 11.784 18.1763 12.195V14.2286C18.1763 15.5976 18.2228 15.7372 18.2029 16.2622V16.2689ZM17.1395 11.3244C17.0604 11.1097 16.9357 10.9148 16.7739 10.753C16.6121 10.5912 16.4171 10.4664 16.2025 10.3873C15.9077 10.2851 15.5973 10.2356 15.2853 10.2411H11.2978C10.9843 10.2442 10.6738 10.3027 10.3807 10.4139C10.1693 10.4894 9.97644 10.6091 9.81488 10.7649C9.65331 10.9208 9.52676 11.1092 9.44365 11.3177C9.34749 11.6138 9.30035 11.9236 9.30409 12.2349V16.2224C9.31104 16.5355 9.36942 16.8453 9.47688 17.1395C9.55601 17.3542 9.68076 17.5491 9.84254 17.7109C10.0043 17.8727 10.1993 17.9974 10.4139 18.0765C10.6976 18.1805 10.9959 18.2388 11.2978 18.2493H15.2853C15.5989 18.2463 15.9093 18.1878 16.2025 18.0765C16.4171 17.9974 16.6121 17.8727 16.7739 17.7109C16.9357 17.5491 17.0604 17.3542 17.1395 17.1395C17.2508 16.8464 17.3093 16.5359 17.3123 16.2224V12.2349C17.3122 11.9211 17.2536 11.61 17.1395 11.3177V11.3244ZM13.2916 16.7673C12.9585 16.7673 12.6287 16.7016 12.3211 16.5739C12.0134 16.4463 11.734 16.2592 11.4988 16.0233C11.2636 15.7875 11.0772 15.5076 10.9504 15.1996C10.8235 14.8917 10.7587 14.5617 10.7595 14.2286C10.7595 13.7262 10.9086 13.2351 11.1878 12.8175C11.4671 12.3999 11.864 12.0745 12.3283 11.8825C12.7925 11.6906 13.3033 11.6407 13.796 11.7392C14.2886 11.8377 14.741 12.0801 15.0957 12.4358C15.4505 12.7915 15.6918 13.2445 15.789 13.7374C15.8862 14.2303 15.835 14.741 15.6418 15.2047C15.4486 15.6685 15.1222 16.0645 14.7038 16.3427C14.2855 16.6209 13.794 16.7686 13.2916 16.7673ZM15.9499 12.1883C15.803 12.1728 15.6671 12.1034 15.5682 11.9936C15.4694 11.8838 15.4148 11.7413 15.4148 11.5935C15.4148 11.4458 15.4694 11.3033 15.5682 11.1935C15.6671 11.0836 15.803 11.0143 15.9499 10.9987C16.0968 11.0143 16.2328 11.0836 16.3316 11.1935C16.4304 11.3033 16.4851 11.4458 16.4851 11.5935C16.4851 11.7413 16.4304 11.8838 16.3316 11.9936C16.2328 12.1034 16.0968 12.1728 15.9499 12.1883Z" fill="white"/>
</svg>
