<svg width="11" height="11" viewBox="0 0 11 11" fill="none" xmlns="http://www.w3.org/2000/svg">
<path d="M8.00049 9.99055H3.60591C3.23128 9.99055 2.87199 9.84173 2.60708 9.57683C2.34218 9.31193 2.19336 8.95264 2.19336 8.57801V4.18342C2.19336 3.80879 2.34218 3.4495 2.60708 3.1846C2.87199 2.9197 3.23128 2.77087 3.60591 2.77087H8.00049C8.37512 2.77087 8.73441 2.9197 8.99931 3.1846C9.26422 3.4495 9.41304 3.80879 9.41304 4.18342V8.57801C9.41304 8.95264 9.26422 9.31193 8.99931 9.57683C8.73441 9.84173 8.37512 9.99055 8.00049 9.99055Z" fill="#767676"/>
<path d="M3.13505 2.14299H7.76271C7.66505 1.86779 7.48463 1.62955 7.2462 1.46094C7.00777 1.29234 6.72301 1.20165 6.431 1.20129H2.03641C1.66178 1.20129 1.30249 1.35012 1.03759 1.61502C0.772683 1.87992 0.623861 2.23921 0.623861 2.61384V7.00843C0.624214 7.30045 0.714912 7.5852 0.883512 7.82363C1.05211 8.06206 1.29036 8.24248 1.56556 8.34015V3.71249C1.56556 3.29623 1.73092 2.89702 2.02525 2.60269C2.31959 2.30835 2.7188 2.14299 3.13505 2.14299Z" fill="#767676"/>
</svg>
