<svg width="28" height="28" viewBox="0 0 28 28" fill="none" xmlns="http://www.w3.org/2000/svg">
<rect x="0.790666" y="1.26979" width="25.9188" height="25.9188" rx="12.9594" stroke="#EDECEA" stroke-width="0.664584"/>
<path d="M18.919 7.58276C19.3107 7.58276 19.6863 7.73836 19.9633 8.01532C20.2403 8.29229 20.3959 8.66793 20.3959 9.05962V19.3976C20.3959 19.7893 20.2403 20.1649 19.9633 20.4419C19.6863 20.7189 19.3107 20.8744 18.919 20.8744H8.58104C8.18935 20.8744 7.81371 20.7189 7.53675 20.4419C7.25978 20.1649 7.10419 19.7893 7.10419 19.3976V9.05962C7.10419 8.66793 7.25978 8.29229 7.53675 8.01532C7.81371 7.73836 8.18935 7.58276 8.58104 7.58276H18.919ZM18.5498 19.0284V15.1147C18.5498 14.4763 18.2962 13.864 17.8447 13.4125C17.3933 12.9611 16.781 12.7074 16.1425 12.7074C15.5149 12.7074 14.7838 13.0914 14.4294 13.6674V12.8477H12.3692V19.0284H14.4294V15.3879C14.4294 14.8193 14.8872 14.3541 15.4558 14.3541C15.73 14.3541 15.9929 14.4631 16.1868 14.6569C16.3807 14.8508 16.4896 15.1138 16.4896 15.3879V19.0284H18.5498ZM9.96928 11.6884C10.2983 11.6884 10.6138 11.5577 10.8465 11.3251C11.0791 11.0924 11.2098 10.7769 11.2098 10.4479C11.2098 9.76112 10.656 9.19992 9.96928 9.19992C9.63831 9.19992 9.32089 9.3314 9.08686 9.56543C8.85282 9.79947 8.72134 10.1169 8.72134 10.4479C8.72134 11.1346 9.28255 11.6884 9.96928 11.6884ZM10.9957 19.0284V12.8477H8.95025V19.0284H10.9957Z" fill="white"/>
</svg>
