<svg width="27" height="28" viewBox="0 0 27 28" fill="none" xmlns="http://www.w3.org/2000/svg">
<rect x="0.561418" y="1.26979" width="25.9188" height="25.9188" rx="12.9594" stroke="#EDECEA" stroke-width="0.664584"/>
<path d="M8.77381 7.58276C7.7265 7.58276 6.875 8.43426 6.875 9.48158V18.9756C6.875 20.0229 7.7265 20.8744 8.77381 20.8744H18.2679C19.3152 20.8744 20.1667 20.0229 20.1667 18.9756V9.48158C20.1667 8.43426 19.3152 7.58276 18.2679 7.58276H8.77381ZM17.5885 10.075L14.5088 13.5937L18.1314 18.3823H15.295L13.0758 15.4777L10.5332 18.3823H9.12391L12.4172 14.6173L8.94292 10.075H11.8505L13.8591 12.7303L16.1792 10.075H17.5885ZM16.467 17.5397L11.4262 10.873H10.5866L15.6837 17.5397H16.464H16.467Z" fill="white"/>
</svg>
